<?xml version="1.0" encoding="utf-8"?>
<!-- Generator: Adobe Illustrator 24.0.2, SVG Export Plug-In . SVG Version: 6.00 Build 0)  -->
<svg version="1.1" id="Layer_1" xmlns="http://www.w3.org/2000/svg" xmlns:xlink="http://www.w3.org/1999/xlink" x="0px" y="0px"
	 viewBox="0 0 289.64 144" style="enable-background:new 0 0 289.64 144;" xml:space="preserve">
<style type="text/css">
	.st0{font-family:'AdobeArabic-Regular';}
	.st1{font-size:52.2963px;}
	.st2{font-size:51.6331px;}
	.st3{fill:#FF0303;}
</style>
<text transform="matrix(1 0 0 1 34.6576 105.7383)" class="st0 st1"> Embroidery</text>
<text transform="matrix(1 0 0 1 76.0414 136.3604)" class="st0 st2">Patches</text>
<g>
	<path class="st3" d="M124.05,55.04c3.36,3.11,6.39,5.91,9.61,8.9c0-1.59,0-3.09,0-4.73c1.15,0,2.04,0,3.07,0c0,4.87,0,9.77,0,14.33
		c-3.02-3.64-5.88-7.82-9.48-11.23c-3.62-3.44-7.98-6.12-11.98-9.1c8.9-4.42,16.12-11.14,21.37-20.65c0,5.38,0,10.26,0,15.26
		c-0.85,0-1.68,0-2.79,0c0-1.53,0-3.06,0-4.92c-3.37,3.11-6.42,5.93-9.7,8.97c4.24,0,8.35,0,12.59,0c0,1.19,0,2.06,0,3.17
		C132.52,55.04,128.41,55.04,124.05,55.04z"/>
	<path class="st3" d="M138.66,33.1c5.34,8.94,12.53,15.68,21.78,20.26c0.01,0.21,0.02,0.41,0.02,0.62
		c-1.58,0.35-3.15,0.95-4.74,1.01c-4.15,0.14-8.3,0.09-12.45,0.02c-1.3-0.02-1.72,0.4-1.69,1.69c0.07,3.29-0.22,6.6,0.09,9.86
		c0.29,3.07-1.32,5.15-3.02,7.84C138.66,60.31,138.66,46.71,138.66,33.1z M141.71,51.81c3.26,0,6.36,0,9.49,0
		c-3.18-2.94-6.26-5.78-9.49-8.76C141.71,46.01,141.71,48.8,141.71,51.81z"/>
	<path class="st3" d="M118.11,12.88c1.34,2.2,2.68,4.4,4.02,6.6c0.87-0.45,1.74-0.89,2.62-1.34c0-2.68,0-5.37,0-8.05
		c0-0.98-0.27-2.08,0.09-2.89c0.19-0.44,1.83-0.79,2.19-0.47c0.66,0.58,0.88,1.68,1.24,2.57c1.14,2.78,2.27,5.56,3.4,8.34
		c0.81-0.17,1.62-0.35,2.43-0.52c0.28-2.95,0.5-5.9,0.87-8.84c0.14-1.12,0.3-2.62,1.04-3.17c0.74-0.55,2.51-0.54,3.26,0
		c0.71,0.51,0.81,2.02,0.99,3.12c0.47,2.95,0.83,5.91,1.33,9.56c3.82-2.72,6.82-4.51,5.52-9.01c-0.16-0.57,1.59-1.69,2.45-2.55
		c0.56,1.08,1.57,2.16,1.6,3.25c0.06,2.8-0.31,5.6-0.51,8.41c0.54,0.09,1.08,0.19,1.63,0.28c1.81-1.72,3.63-3.44,5.44-5.16
		c0.51,0.27,1.02,0.53,1.52,0.8c-1.91,4.81-3.82,9.63-5.91,14.9c-10.32-5.07-20.46-5.49-30.94-0.05c-2.07-5.14-4.01-9.94-5.94-14.74
		C117.01,13.57,117.56,13.22,118.11,12.88z"/>
	<path class="st3" d="M230.93,27.09c-9.83,2.41-19.55,5.44-29.51,7.05c-10.01,1.62-20.25,1.82-30.79,2.68
		c1.02,9.37,2.34,19.02-4.75,27.2c3.78-11.06,2.99-21.41-5.38-31.38c24.24-0.03,47.5-0.91,70.08-7.75
		C230.7,25.63,230.81,26.36,230.93,27.09z"/>
	<path class="st3" d="M110.1,65.21c-7.34-9.49-6.36-18.92-5.05-28.78c-20.78-0.54-41.28-1.57-60.21-10.99
		c22.67,6.19,45.87,7.27,69.36,7.16C106.49,47.48,106.14,50.01,110.1,65.21z"/>
	<path class="st3" d="M50.18,34.05c15.28,2.19,29.8,4.27,44.42,6.37C79.3,43.18,64.92,40.12,50.18,34.05z"/>
	<path class="st3" d="M180.64,40.43c14.74-2.09,29.28-4.16,44.24-6.28C210.56,40.34,196.13,43.04,180.64,40.43z"/>
	<path class="st3" d="M218.06,41.98c-11.75,5.35-24.69,7.42-37.33,3.17C192.93,44.11,205.94,43.01,218.06,41.98z"/>
	<path class="st3" d="M94.74,45.17c-12.58,4.28-25.56,2.11-37.41-3.24C69.53,42.98,82.59,44.12,94.74,45.17z"/>
	<path class="st3" d="M181.15,50.62c10.88-0.54,23.01-1.14,33.45-1.66C204.48,54.38,192.31,54.88,181.15,50.62z"/>
	<path class="st3" d="M94.26,50.63c-11.13,4.43-23.39,3.58-33.58-1.74C71.15,49.43,83.41,50.07,94.26,50.63z"/>
	<path class="st3" d="M211.68,55.75c-9.29,4.43-19.66,5.16-31.41,0C191.75,55.75,202.05,55.75,211.68,55.75z"/>
	<path class="st3" d="M95.12,55.75c-11.54,5.25-21.94,4.45-31.21,0C73.35,55.75,83.76,55.75,95.12,55.75z"/>
	<path class="st3" d="M121.31,73.42c4.07,1.47,8.03,3.56,12.23,4.27c9.69,1.64,17.9-1.61,24.38-9.05
		c-3.38,7.83-15.37,13.22-25.04,10.58C128.8,78.1,125.15,75.4,121.31,73.42z"/>
	<path class="st3" d="M155.3,34.43c-4.68-1.81-9.23-4.26-14.08-5.26c-6.97-1.44-13.56,0.55-19.37,4.76
		c5.58-7.12,17.62-9.04,27.22-4.12C151.35,30.96,153.24,32.87,155.3,34.43z"/>
	<path class="st3" d="M95.6,60.54c9.54,1.01,14.24,7.48,19.44,13.16c-2.99-2.34-5.87-4.85-9-6.98
		C102.9,64.59,99.52,62.84,95.6,60.54z"/>
	<path class="st3" d="M160.29,73.42c5.52-5.42,10.25-12.14,18.55-12.71C172.81,64.85,166.55,69.14,160.29,73.42z"/>
	<path class="st3" d="M161.02,64.57c2.17-7.45,2.13-14.9,0-22.35C165.06,49.67,165.45,57.12,161.02,64.57z"/>
	<path class="st3" d="M114.54,42.22c-1.78,7.32-3.5,14.63,0.56,21.8C109.74,56.89,111.18,49.58,114.54,42.22z"/>
</g>
</svg>
