<?xml version="1.0" encoding="utf-8"?>
<!-- Generator: Adobe Illustrator 24.0.2, SVG Export Plug-In . SVG Version: 6.00 Build 0)  -->
<svg version="1.1" id="Layer_1" xmlns="http://www.w3.org/2000/svg" xmlns:xlink="http://www.w3.org/1999/xlink" x="0px" y="0px"
	 viewBox="0 0 289.64 115.79" style="enable-background:new 0 0 289.64 115.79;" xml:space="preserve">
<style type="text/css">
	.st0{fill:#FFFFFF;}
	.st1{font-family:'AdobeArabic-Regular';}
	.st2{font-size:36.4624px;}
	.st3{font-size:36px;}
</style>
<text transform="matrix(1 0 0 1 75.6352 82.4388)" class="st0 st1 st2"> Embroidery</text>
<text transform="matrix(1 0 0 1 104.4889 103.7893)" class="st0 st1 st3">Patches</text>
<g>
	<path class="st0" d="M137.96,47.09c2.34,2.17,4.45,4.12,6.7,6.2c0-1.11,0-2.15,0-3.3c0.8,0,1.42,0,2.14,0c0,3.4,0,6.81,0,9.99
		c-2.11-2.54-4.1-5.45-6.61-7.83c-2.53-2.4-5.56-4.26-8.35-6.35c6.21-3.08,11.24-7.76,14.9-14.39c0,3.75,0,7.16,0,10.64
		c-0.6,0-1.17,0-1.95,0c0-1.07,0-2.13,0-3.43c-2.35,2.17-4.48,4.14-6.77,6.25c2.95,0,5.82,0,8.78,0c0,0.83,0,1.44,0,2.21
		C143.87,47.09,141,47.09,137.96,47.09z"/>
	<path class="st0" d="M148.15,31.79c3.73,6.23,8.74,10.93,15.19,14.13c0.01,0.14,0.01,0.29,0.02,0.43c-1.1,0.25-2.19,0.67-3.3,0.7
		c-2.89,0.1-5.79,0.06-8.68,0.02c-0.91-0.01-1.2,0.28-1.18,1.18c0.05,2.29-0.15,4.6,0.07,6.87c0.2,2.14-0.92,3.59-2.1,5.46
		C148.15,50.77,148.15,41.28,148.15,31.79z M150.27,44.84c2.27,0,4.43,0,6.62,0c-2.22-2.05-4.37-4.03-6.62-6.11
		C150.27,40.8,150.27,42.74,150.27,44.84z"/>
	<path class="st0" d="M133.82,17.69c0.94,1.54,1.87,3.07,2.81,4.61c0.61-0.31,1.22-0.62,1.82-0.93c0-1.87,0-3.74,0-5.61
		c0-0.68-0.19-1.45,0.07-2.02c0.14-0.3,1.28-0.55,1.53-0.33c0.46,0.4,0.61,1.17,0.87,1.79c0.8,1.94,1.58,3.88,2.37,5.81
		c0.56-0.12,1.13-0.24,1.69-0.36c0.19-2.06,0.35-4.12,0.6-6.16c0.1-0.78,0.21-1.83,0.72-2.21c0.52-0.38,1.75-0.38,2.28,0
		c0.5,0.36,0.56,1.41,0.69,2.18c0.33,2.05,0.58,4.12,0.93,6.66c2.66-1.9,4.76-3.14,3.85-6.28c-0.11-0.4,1.11-1.18,1.71-1.78
		c0.39,0.76,1.1,1.5,1.11,2.27c0.04,1.95-0.22,3.91-0.35,5.86c0.38,0.06,0.76,0.13,1.13,0.19c1.27-1.2,2.53-2.4,3.8-3.6
		c0.35,0.18,0.71,0.37,1.06,0.55c-1.33,3.36-2.67,6.71-4.12,10.39c-7.2-3.53-14.26-3.83-21.57-0.04c-1.44-3.58-2.79-6.93-4.14-10.28
		C133.06,18.17,133.44,17.93,133.82,17.69z"/>
	<path class="st0" d="M212.48,27.6c-6.85,1.68-13.63,3.79-20.57,4.92c-6.98,1.13-14.12,1.27-21.47,1.87
		c0.71,6.53,1.63,13.26-3.32,18.97c2.64-7.71,2.09-14.93-3.75-21.88c16.9-0.02,33.12-0.64,48.86-5.4
		C212.32,26.59,212.4,27.09,212.48,27.6z"/>
	<path class="st0" d="M128.24,54.18c-5.12-6.62-4.43-13.19-3.52-20.07c-14.49-0.37-28.78-1.09-41.98-7.66
		c15.8,4.32,31.98,5.07,48.36,5C125.72,41.82,125.47,43.58,128.24,54.18z"/>
	<path class="st0" d="M86.46,32.46c10.66,1.53,20.78,2.98,30.97,4.44C106.76,38.82,96.74,36.69,86.46,32.46z"/>
	<path class="st0" d="M177.42,36.91c10.27-1.46,20.42-2.9,30.85-4.38C198.28,36.84,188.22,38.72,177.42,36.91z"/>
	<path class="st0" d="M203.51,37.99c-8.2,3.73-17.21,5.18-26.03,2.21C185.99,39.47,195.06,38.7,203.51,37.99z"/>
	<path class="st0" d="M117.52,40.21c-8.77,2.99-17.82,1.47-26.09-2.26C99.95,38.69,109.05,39.47,117.52,40.21z"/>
	<path class="st0" d="M177.78,44.01c7.58-0.38,16.04-0.79,23.32-1.16C194.04,46.63,185.56,46.98,177.78,44.01z"/>
	<path class="st0" d="M117.19,44.01c-7.76,3.09-16.31,2.49-23.41-1.21C101.08,43.18,109.63,43.62,117.19,44.01z"/>
	<path class="st0" d="M199.06,47.59c-6.47,3.09-13.71,3.6-21.9,0C185.16,47.59,192.35,47.59,199.06,47.59z"/>
	<path class="st0" d="M117.79,47.58c-8.05,3.66-15.29,3.1-21.76,0C102.61,47.58,109.87,47.58,117.79,47.58z"/>
	<path class="st0" d="M136.05,59.91c2.84,1.02,5.6,2.48,8.52,2.98c6.75,1.14,12.48-1.13,17-6.31c-2.36,5.46-10.72,9.22-17.46,7.37
		C141.27,63.17,138.73,61.29,136.05,59.91z"/>
	<path class="st0" d="M159.75,32.72c-3.26-1.26-6.43-2.97-9.81-3.67c-4.86-1.01-9.45,0.38-13.5,3.32c3.89-4.96,12.28-6.3,18.98-2.87
		C157,30.3,158.31,31.63,159.75,32.72z"/>
	<path class="st0" d="M118.12,50.93c6.65,0.7,9.93,5.21,13.55,9.18c-2.08-1.63-4.09-3.38-6.28-4.87
		C123.22,53.75,120.86,52.53,118.12,50.93z"/>
	<path class="st0" d="M163.23,59.91c3.85-3.78,7.15-8.46,12.94-8.86C171.96,53.93,167.59,56.92,163.23,59.91z"/>
	<path class="st0" d="M163.74,53.73c1.51-5.19,1.49-10.39,0-15.58C166.56,43.34,166.83,48.54,163.74,53.73z"/>
	<path class="st0" d="M131.33,38.15c-1.24,5.1-2.44,10.2,0.39,15.2C127.98,48.38,128.99,43.28,131.33,38.15z"/>
</g>
</svg>
